<svg xmlns="http://www.w3.org/2000/svg" width="1200" height="630" viewBox="0 0 1200 630" role="img" aria-labelledby="title desc">
  <title id="title">Bhaskar Tax Consultant social preview</title>
  <desc id="desc">Modern preview for tax filing, GST, accounting and compliance services with 300 plus clients served.</desc>
  <defs>
    <linearGradient id="page" x1="0" y1="0" x2="1" y2="1">
      <stop offset="0" stop-color="#f7fbff"/>
      <stop offset="1" stop-color="#eaf2ff"/>
    </linearGradient>
    <linearGradient id="navy" x1="0" y1="0" x2="1" y2="1">
      <stop offset="0" stop-color="#06162f"/>
      <stop offset="0.56" stop-color="#0b2447"/>
      <stop offset="1" stop-color="#145439"/>
    </linearGradient>
    <linearGradient id="gold" x1="0" y1="0" x2="1" y2="0">
      <stop offset="0" stop-color="#ffd447"/>
      <stop offset="1" stop-color="#f4b21d"/>
    </linearGradient>
    <filter id="cardShadow" x="-20%" y="-20%" width="140%" height="140%">
      <feDropShadow dx="0" dy="22" stdDeviation="18" flood-color="#06162f" flood-opacity="0.18"/>
    </filter>
  </defs>

  <rect width="1200" height="630" fill="url(#page)"/>
  <path d="M760 0h440v630H645c78-88 100-188 65-300-37-118-10-225 50-330Z" fill="url(#navy)"/>
  <path d="M0 0h780c-62 74-92 158-88 252 5 127 64 217 23 378H0Z" fill="#ffffff" opacity="0.84"/>

  <g transform="translate(66 62)">
    <rect x="0" y="0" width="76" height="76" rx="8" fill="url(#navy)"/>
    <text x="38" y="49" text-anchor="middle" font-family="Arial, Helvetica, sans-serif" font-size="31" font-weight="900" fill="#ffffff">BT</text>
    <text x="98" y="30" font-family="Arial, Helvetica, sans-serif" font-size="31" font-weight="900" fill="#0b2447">Bhaskar Tax Consultant</text>
    <text x="98" y="64" font-family="Arial, Helvetica, sans-serif" font-size="20" font-weight="700" fill="#147b39">Bhaskara N D</text>

    <text x="0" y="170" font-family="Arial, Helvetica, sans-serif" font-size="58" font-weight="900" fill="#0b2447">Tax, GST &amp; Filing</text>
    <text x="0" y="238" font-family="Arial, Helvetica, sans-serif" font-size="58" font-weight="900" fill="#147b39">Compliance Support</text>
    <text x="0" y="292" font-family="Arial, Helvetica, sans-serif" font-size="25" font-weight="700" fill="#516174">ITR, GST, TDS/TCS, accounting and audits.</text>

    <g transform="translate(0 344)">
      <rect x="0" y="0" width="180" height="104" rx="8" fill="#0b2447"/>
      <text x="24" y="45" font-family="Arial, Helvetica, sans-serif" font-size="42" font-weight="900" fill="#ffd447">300+</text>
      <text x="24" y="76" font-family="Arial, Helvetica, sans-serif" font-size="18" font-weight="800" fill="#ffffff">Clients served</text>
      <rect x="198" y="0" width="170" height="104" rx="8" fill="#e8f7ee"/>
      <text x="222" y="45" font-family="Arial, Helvetica, sans-serif" font-size="42" font-weight="900" fill="#147b39">3+</text>
      <text x="222" y="76" font-family="Arial, Helvetica, sans-serif" font-size="18" font-weight="800" fill="#0b2447">Years service</text>
      <rect x="386" y="0" width="244" height="104" rx="8" fill="url(#gold)"/>
      <text x="410" y="43" font-family="Arial, Helvetica, sans-serif" font-size="27" font-weight="900" fill="#0b2447">Call / WhatsApp</text>
      <text x="410" y="76" font-family="Arial, Helvetica, sans-serif" font-size="30" font-weight="900" fill="#0b2447">8296765186</text>
    </g>
  </g>

  <g filter="url(#cardShadow)" transform="translate(760 86)">
    <rect x="0" y="0" width="348" height="458" rx="8" fill="#ffffff"/>
    <rect x="28" y="28" width="292" height="72" rx="8" fill="#edf5ff"/>
    <text x="52" y="73" font-family="Arial, Helvetica, sans-serif" font-size="28" font-weight="900" fill="#0b2447">Service Dashboard</text>

    <g transform="translate(28 132)">
      <rect x="0" y="0" width="292" height="74" rx="8" fill="#f7fbff" stroke="#dce4ef"/>
      <text x="22" y="31" font-family="Arial, Helvetica, sans-serif" font-size="18" font-weight="900" fill="#147b39">Income Tax Filing</text>
      <path d="M22 48h174" stroke="#ccd8e8" stroke-width="10" stroke-linecap="round"/>
      <path d="M236 38l17 17 35-42" fill="none" stroke="#1f9d3f" stroke-width="9" stroke-linecap="round" stroke-linejoin="round"/>
    </g>

    <g transform="translate(28 226)">
      <rect x="0" y="0" width="292" height="74" rx="8" fill="#f7fbff" stroke="#dce4ef"/>
      <text x="22" y="31" font-family="Arial, Helvetica, sans-serif" font-size="18" font-weight="900" fill="#15397a">GST &amp; TDS/TCS</text>
      <path d="M22 48h154" stroke="#ccd8e8" stroke-width="10" stroke-linecap="round"/>
      <path d="M236 38l17 17 35-42" fill="none" stroke="#1f9d3f" stroke-width="9" stroke-linecap="round" stroke-linejoin="round"/>
    </g>

    <g transform="translate(28 320)">
      <rect x="0" y="0" width="292" height="74" rx="8" fill="#f7fbff" stroke="#dce4ef"/>
      <text x="22" y="31" font-family="Arial, Helvetica, sans-serif" font-size="18" font-weight="900" fill="#0b2447">Accounting &amp; Compliance</text>
      <path d="M22 48h190" stroke="#ccd8e8" stroke-width="10" stroke-linecap="round"/>
      <path d="M236 38l17 17 35-42" fill="none" stroke="#1f9d3f" stroke-width="9" stroke-linecap="round" stroke-linejoin="round"/>
    </g>
  </g>

  <text x="760" y="588" font-family="Arial, Helvetica, sans-serif" font-size="20" font-weight="800" fill="#ffffff">ITR | GST | TDS | Accounting | Compliance</text>
</svg>
